<svg xmlns="http://www.w3.org/2000/svg" width="32" height="32" viewBox="0 0 32 32"><defs><style>.a{fill:#333;}</style></defs><path class="a" d="M12.46,10.328a.915.915,0,0,1,1.432,0l5,5.879a1.335,1.335,0,0,1,.031,1.634L14,23.632a.911.911,0,0,1-1.431.006,1.334,1.334,0,0,1,0-1.677l4.184-4.975L12.456,12a1.334,1.334,0,0,1,.005-1.677Z" transform="translate(0.839 -0.983)"/><path class="a" d="M19.375,3.375a16,16,0,1,1-16,16A16,16,0,0,1,19.375,3.375ZM9.806,28.944A13.533,13.533,0,1,0,28.944,9.806,13.533,13.533,0,1,0,9.806,28.944Z" transform="translate(-3.375 -3.375)"/></svg>