<svg xmlns="http://www.w3.org/2000/svg" width="32" height="32" viewBox="0 0 32 32"><defs><style>.a{fill:#333;}</style></defs><path class="a" d="M18.89,10.328a.915.915,0,0,0-1.432,0l-5,5.879a1.335,1.335,0,0,0-.031,1.634l4.928,5.792a.911.911,0,0,0,1.431.006,1.334,1.334,0,0,0,0-1.677L14.6,16.986,18.894,12a1.334,1.334,0,0,0-.005-1.677Z" transform="translate(-0.189 -0.983)"/><path class="a" d="M19.375,3.375a16,16,0,1,0,16,16A16,16,0,0,0,19.375,3.375Zm9.569,25.569A13.533,13.533,0,1,1,9.806,9.806,13.533,13.533,0,1,1,28.944,28.944Z" transform="translate(-3.375 -3.375)"/></svg>