<svg xmlns="http://www.w3.org/2000/svg" width="100" height="100" viewBox="0 0 100 100"><defs><style>.a{fill:#ffe03d;}.b{fill:none;}.c{fill:#333;}</style></defs><g transform="translate(-634 -327)"><circle class="a" cx="50" cy="50" r="50" transform="translate(634 327)"/><g transform="translate(-8007 -12255)"><rect class="b" width="48" height="48" transform="translate(8667 12608)"/><g transform="translate(8671 12618.001)"><path class="c" d="M46.89,974.334a3,3,0,0,0-2.061.905c-.676.676-5.637,5.76-10.759,11-4.226,4.328-7.288,7.455-8.854,9.053l-10.368-8.288A3,3,0,1,0,11.1,991.69l12.492,9.99a3,3,0,0,0,4-.234c.676-.676,5.637-5.76,10.759-11s10.4-10.65,10.727-10.973a3,3,0,0,0-2.186-5.135Z" transform="translate(-9.975 -974.332)"/></g></g></g></svg>