<svg xmlns="http://www.w3.org/2000/svg" width="24" height="24" viewBox="0 0 24 24"><defs><style>.a{fill:none;}.b{fill:#6e6e6e;}</style></defs><g transform="translate(-5431 -11127)"><rect class="a" width="24" height="24" transform="translate(5431 11127)"/><g transform="translate(5433 11129)"><g transform="translate(-540 -211)"><path class="b" d="M550,225a3,3,0,0,1,2.835,2.015l.049-.008h0L553,227h6a1,1,0,0,1,.117,1.993L559,229h-6a1.007,1.007,0,0,1-.166-.014,3,3,0,0,1-5.669,0l-.049.008h0L547,229h-6a1,1,0,0,1-.117-1.993L541,227h6a1.007,1.007,0,0,1,.166.014A3,3,0,0,1,550,225Zm0,2a1,1,0,1,0,1,1A1,1,0,0,0,550,227Zm-7-9a3,3,0,0,1,2.835,2.015l.049-.008h0L546,220h13a1,1,0,0,1,.117,1.993L559,222H546a1.007,1.007,0,0,1-.166-.014A3,3,0,1,1,543,218Zm0,2a1,1,0,1,0,1,1A1,1,0,0,0,543,220Zm11-9a3,3,0,0,1,2.835,2.015l.049-.008h0L557,213h2a1,1,0,0,1,.117,1.993L559,215h-2a1.007,1.007,0,0,1-.166-.014,3,3,0,0,1-5.669,0l-.049.008h0L551,215H541a1,1,0,0,1-.117-1.993L541,213h10a1.007,1.007,0,0,1,.166.014A3,3,0,0,1,554,211Zm0,2a1,1,0,1,0,1,1A1,1,0,0,0,554,213Z"/></g></g></g></svg>