<svg xmlns="http://www.w3.org/2000/svg" xmlns:xlink="http://www.w3.org/1999/xlink" width="138" height="138" viewBox="0 0 138 138"><defs><style>.a{fill:#ffe03d;stroke:#fff;stroke-width:2px;}.b{fill:none;}.c{fill:#333;}.d{stroke:none;}.e{filter:url(#a);}</style><filter id="a" x="0" y="0" width="138" height="138" filterUnits="userSpaceOnUse"><feOffset input="SourceAlpha"/><feGaussianBlur stdDeviation="15" result="b"/><feFlood flood-color="#5c5c5c" flood-opacity="0.102"/><feComposite operator="in" in2="b"/><feComposite in="SourceGraphic"/></filter></defs><g transform="translate(-338 -239)"><g class="e" transform="matrix(1, 0, 0, 1, 338, 239)"><g class="a" transform="translate(45 45)"><circle class="d" cx="24" cy="24" r="24"/><circle class="b" cx="24" cy="24" r="23"/></g></g><g transform="translate(-6399 -11799)"><rect class="b" width="24" height="24" transform="translate(6794 12095)"/><g transform="translate(6480.552 11617.427)"><path class="c" d="M334.858,484.79a2.071,2.071,0,0,0-1.469-.633h-.606v-.5a2.134,2.134,0,0,0-2.132-2.089H317.582a2.135,2.135,0,0,0-2.134,2.092V492.9a2.135,2.135,0,0,0,2.132,2.089h.55v.5a2.132,2.132,0,0,0,2.131,2.087h13.053a2.134,2.134,0,0,0,2.134-2.091V486.27A2.062,2.062,0,0,0,334.858,484.79Zm-1.526,11.726h-3.315l-3.666-3.539,2.134-2.051a1.8,1.8,0,0,1,2.5,0l3.4,3.281v1.3A1.045,1.045,0,0,1,333.332,496.517ZM319.257,486.27a1.035,1.035,0,0,1,1.043-1.016h13.011a1.019,1.019,0,0,1,1.07.963v6.476l-2.617-2.541a2.94,2.94,0,0,0-4.048,0l-2.141,2.059-.043-.042a2.942,2.942,0,0,0-4.048,0l-2.228,2.158Zm-1.662-3.617h13.031a1.035,1.035,0,0,1,1.033,1.016v.493H320.284a2.136,2.136,0,0,0-2.134,2.092V493.9h-.721v0a1.033,1.033,0,0,1-.875-1v-9.23a1.014,1.014,0,0,1,.315-.723A1.033,1.033,0,0,1,317.595,482.653Zm1.7,13.139,2.954-2.847a1.8,1.8,0,0,1,2.5,0l3.69,3.548h-8.146A1.042,1.042,0,0,1,319.291,495.792Z"/><path class="c" d="M322.541,490.16h0a1.743,1.743,0,0,0-.058-3.485h-.056a1.738,1.738,0,0,0-1.687,1.746,1.776,1.776,0,0,0,1.771,1.739Zm.624-1.739a.65.65,0,0,1-.648.631H322.5a.646.646,0,0,1-.632-.648.661.661,0,0,1,.663-.651h.007A.65.65,0,0,1,323.165,488.421Z" transform="translate(-0.095 -0.12)"/></g></g></g></svg>