<svg xmlns="http://www.w3.org/2000/svg" width="24" height="24" viewBox="0 0 24 24"><defs><style>.a{fill:none;}.b{fill:#6e6e6e;}</style></defs><g transform="translate(-394 -296)"><rect class="a" width="24" height="24" transform="translate(394 296)"/><path class="b" d="M8.131-11044.11c-.332-.216-8.131-5.349-8.131-11.573A8.42,8.42,0,0,1,8.5-11064a8.42,8.42,0,0,1,8.5,8.317c0,6.225-7.8,11.357-8.131,11.573a.683.683,0,0,1-.369.109A.675.675,0,0,1,8.131-11044.11Zm-6.756-11.573c0,4.753,5.615,9.063,7.125,10.135,1.509-1.073,7.125-5.39,7.125-10.135A7.031,7.031,0,0,0,8.5-11062.6,7.031,7.031,0,0,0,1.375-11055.684Zm3.253-.561a3.915,3.915,0,0,1,3.872-3.948,3.915,3.915,0,0,1,3.872,3.948A3.915,3.915,0,0,1,8.5-11052.3,3.915,3.915,0,0,1,4.628-11056.244Zm1.375,0a2.525,2.525,0,0,0,2.5,2.547,2.525,2.525,0,0,0,2.5-2.547,2.525,2.525,0,0,0-2.5-2.547A2.525,2.525,0,0,0,6-11056.244Z" transform="translate(397.5 11362)"/></g></svg>