<svg xmlns="http://www.w3.org/2000/svg" xmlns:xlink="http://www.w3.org/1999/xlink" width="138" height="138" viewBox="0 0 138 138"><defs><style>.a{fill:#ffe03d;stroke:#fff;stroke-width:2px;}.b{fill:none;}.c{fill:#333;}.d{stroke:none;}.e{filter:url(#a);}</style><filter id="a" x="0" y="0" width="138" height="138" filterUnits="userSpaceOnUse"><feOffset input="SourceAlpha"/><feGaussianBlur stdDeviation="15" result="b"/><feFlood flood-color="#5c5c5c" flood-opacity="0.102"/><feComposite operator="in" in2="b"/><feComposite in="SourceGraphic"/></filter></defs><g transform="translate(-324 -240)"><g class="e" transform="matrix(1, 0, 0, 1, 324, 240)"><g class="a" transform="translate(45 45)"><circle class="d" cx="24" cy="24" r="24"/><circle class="b" cx="24" cy="24" r="23"/></g></g><g transform="translate(-6593 -11819)"><rect class="b" width="24" height="24" transform="translate(6974 12116)"/><g transform="translate(6973 11086.638)"><path class="c" d="M4.7,3A1.711,1.711,0,0,0,3,4.7V21.3A1.709,1.709,0,0,0,4.7,23H21.3A1.709,1.709,0,0,0,23,21.3V4.7A1.711,1.711,0,0,0,21.3,3Zm0,1.113H21.3a.576.576,0,0,1,.59.588V21.3a.576.576,0,0,1-.59.588H4.7a.576.576,0,0,1-.59-.588V4.7A.576.576,0,0,1,4.7,4.113Zm7.743,2.22a.556.556,0,0,0-.556.555v3.333a.556.556,0,0,0,.555.556h6.667a.556.556,0,0,0,.556-.556V6.889a.556.556,0,0,0-.556-.556ZM6.333,7.444V8.556H9.667V7.444Zm6.667,0h5.556V9.667H13Zm-.556,4.444a.556.556,0,0,0-.556.555v3.333a.556.556,0,0,0,.556.556h6.667a.556.556,0,0,0,.556-.555V12.444a.556.556,0,0,0-.556-.556ZM6.333,13v1.111H9.667V13ZM13,13h5.556v2.222H13ZM6.333,18.556v1.111h13.22V18.556Z" transform="translate(0 1028.362)"/></g></g></g></svg>