<svg xmlns="http://www.w3.org/2000/svg" width="64" height="64" viewBox="0 0 64 64"><defs><style>.a{fill:#333;}.b{fill:#fff;}</style></defs><circle class="a" cx="32" cy="32" r="32"/><g transform="translate(8 8)"><g transform="translate(8 8)"><path class="b" d="M20,8H9.333A1.334,1.334,0,0,0,8,9.333V20a1.334,1.334,0,0,0,1.333,1.333H20A1.334,1.334,0,0,0,21.333,20V9.333A1.334,1.334,0,0,0,20,8Z" transform="translate(-8 -8)"/><path class="b" d="M42.667,21.333A6.667,6.667,0,1,0,36,14.667,6.674,6.674,0,0,0,42.667,21.333Z" transform="translate(-17.333 -8)"/><path class="b" d="M15.859,36.737a1.334,1.334,0,0,0-2.385,0L8.141,47.4a1.334,1.334,0,0,0,1.193,1.93H20A1.333,1.333,0,0,0,21.193,47.4Z" transform="translate(-8 -17.333)"/><path class="b" d="M45.333,36H40a4,4,0,0,0-4,4v5.333a4,4,0,0,0,4,4h5.333a4,4,0,0,0,4-4V40A4,4,0,0,0,45.333,36Z" transform="translate(-17.333 -17.333)"/></g></g></svg>