<svg xmlns="http://www.w3.org/2000/svg" width="65" height="64" viewBox="0 0 65 64"><defs><style>.a{fill:#333;}.b{fill:#fff;}</style></defs><ellipse class="a" cx="32.5" cy="32" rx="32.5" ry="32"/><path class="b" d="M307.1,410.116l-.008-.01a12.052,12.052,0,0,0-8.186-4.66,11.884,11.884,0,0,0-8.988,2.667,12.457,12.457,0,0,0-1.936,2,12.189,12.189,0,0,0,0,14.7l9.557,12.551L307.1,424.81A12.378,12.378,0,0,0,307.1,410.116Zm-4.285,7.194a5.415,5.415,0,1,1-10.829-.123,5.6,5.6,0,0,1,5.5-5.583h.044a5.309,5.309,0,0,1,3.787,1.724A5.639,5.639,0,0,1,302.815,417.31Z" transform="translate(-264.514 -389.365)"/></svg>