<svg xmlns="http://www.w3.org/2000/svg" width="96" height="96" viewBox="0 0 96 96"><defs><style>.a,.d{fill:#ffe03d;}.a{opacity:0.2;}.b{fill:#1ce3dc;}.c{fill:#232323;}.e{fill:#efad04;}.f{fill:#6e6e6e;}.g{fill:#262626;}.h{fill:#333;}.i{fill:#f2b675;}.j{fill:#ffc987;}.k{fill:#e5a565;}</style></defs><circle class="a" cx="48" cy="48" r="48"/><g transform="translate(0 28.035)"><path class="b" d="M225.738,158.145a2.875,2.875,0,0,0-2.875-2.875H211.176a2.875,2.875,0,1,1,0-5.75h32.875a2.875,2.875,0,0,1,2.875,2.875,2.875,2.875,0,0,0,2.875,2.875h7.375a2.875,2.875,0,0,1,0,5.75h-19a2.875,2.875,0,0,0-2.875,2.875,2.875,2.875,0,0,1-2.875,2.875H218.3a2.875,2.875,0,1,1,0-5.75h4.562A2.874,2.874,0,0,0,225.738,158.145Zm0,0" transform="translate(-169.244 -149.52)"/><path class="b" d="M28.678,208.871H21.3A2.876,2.876,0,0,1,18.428,206a2.875,2.875,0,0,0-2.875-2.875H1.028a48.43,48.43,0,0,0-.47,17.25H3.928A2.874,2.874,0,0,0,6.8,217.5a2.875,2.875,0,0,1,2.875-2.875h19a2.875,2.875,0,0,0,0-5.75Zm0,0" transform="translate(0 -193.071)"/><path class="b" d="M360.178,255.293H328.019a2.875,2.875,0,0,0,0,5.75h11.687a2.875,2.875,0,1,1,0,5.75h-4.562a2.875,2.875,0,0,0,0,5.75h14.125a2.875,2.875,0,0,0,2.875-2.875,2.876,2.876,0,0,1,2.875-2.875h3.8a48.091,48.091,0,0,0,1.358-11.367C360.18,255.382,360.178,255.338,360.178,255.293Zm0,0" transform="translate(-264.18 -235.46)"/></g><path d="M110.873,241.574l-7.787,3.951,23.589,46.485a48.33,48.33,0,0,0,5.082.268q2.394,0,4.729-.232Zm0,0" transform="translate(-83.757 -196.279)"/><path class="c" d="M129.785,242.986l25,49.274q1.711-.046,3.39-.212l-25.613-50.473Zm0,0" transform="translate(-105.45 -196.279)"/><path class="c" d="M23.749,69.466,19.072,71.84a1.328,1.328,0,0,0-.583,1.785L34.6,105.383l7.045-3.575L25.534,70.05A1.328,1.328,0,0,0,23.749,69.466Zm0,0" transform="translate(-14.905 -56.324)"/><path d="M22.011,75l16.116,31.759L34.6,108.545,18.489,76.788A1.328,1.328,0,0,1,19.072,75L22.6,73.215A1.328,1.328,0,0,0,22.011,75Zm0,0" transform="translate(-14.905 -59.487)"/><path class="d" d="M87.5,219.481l-15.135,7.68a2.325,2.325,0,0,0,2.1,4.147L89.6,223.627a2.325,2.325,0,1,0-2.1-4.146Zm0,0" transform="translate(-57.76 -178.123)"/><path class="e" d="M74.122,257.137a2.325,2.325,0,0,0,3.125,1.021l-2.781,1.411a2.325,2.325,0,0,1-2.1-4.147l2.781-1.411A2.324,2.324,0,0,0,74.122,257.137Zm0,0" transform="translate(-57.76 -206.385)"/><path d="M93.774,202.121l-.823,2.515a.392.392,0,0,0,.251.494l2.515.822a.391.391,0,0,0,.494-.25l.822-2.515a.391.391,0,0,0-.25-.494l-2.515-.823A.392.392,0,0,0,93.774,202.121Zm0,0" transform="translate(-75.508 -164.004)"/><path d="M77.339,169.737l-.822,2.515a.392.392,0,0,0,.251.494l2.515.822a.391.391,0,0,0,.494-.25L80.6,170.8a.392.392,0,0,0-.25-.494l-2.516-.822A.392.392,0,0,0,77.339,169.737Zm0,0" transform="translate(-62.154 -137.691)"/><path d="M60.909,137.353l-.822,2.516a.392.392,0,0,0,.25.494l2.515.822a.392.392,0,0,0,.494-.251l.822-2.515a.392.392,0,0,0-.25-.494L61.4,137.1A.391.391,0,0,0,60.909,137.353Zm0,0" transform="translate(-48.805 -111.38)"/><path d="M44.473,104.97l-.822,2.515a.392.392,0,0,0,.251.494l2.515.822a.391.391,0,0,0,.494-.25l.822-2.515a.391.391,0,0,0-.25-.494l-2.515-.822A.393.393,0,0,0,44.473,104.97Zm0,0" transform="translate(-35.451 -85.069)"/><path d="M230.781,292.047q2.333.229,4.729.232a48.306,48.306,0,0,0,5.082-.268l23.59-46.485-7.787-3.951Zm0,0" transform="translate(-187.51 -196.279)"/><path class="c" d="M256.394,241.574l-25.613,50.473q1.679.165,3.39.212l25-49.274Zm0,0" transform="translate(-187.51 -196.279)"/><path class="c" d="M387.264,69.466l4.677,2.374a1.327,1.327,0,0,1,.583,1.785l-16.115,31.758-7.045-3.575,16.115-31.759A1.328,1.328,0,0,1,387.264,69.466Zm0,0" transform="translate(-300.108 -56.324)"/><path d="M404.265,75l-16.116,31.759,3.523,1.787,16.115-31.758A1.328,1.328,0,0,0,407.2,75l-3.523-1.788A1.328,1.328,0,0,1,404.265,75Zm0,0" transform="translate(-315.371 -59.487)"/><path class="d" d="M338.762,219.481l15.135,7.68a2.325,2.325,0,0,1-2.1,4.147l-15.135-7.681a2.325,2.325,0,1,1,2.1-4.146Zm0,0" transform="translate(-272.5 -178.123)"/><path class="e" d="M411.192,257.137a2.325,2.325,0,0,1-3.125,1.021l2.781,1.411a2.325,2.325,0,0,0,2.1-4.147l-2.781-1.411A2.324,2.324,0,0,1,411.192,257.137Zm0,0" transform="translate(-331.554 -206.385)"/><path d="M400.367,202.121l.822,2.515a.392.392,0,0,1-.251.494l-2.515.822a.392.392,0,0,1-.495-.25l-.822-2.515a.391.391,0,0,1,.25-.494l2.515-.823A.392.392,0,0,1,400.367,202.121Zm0,0" transform="translate(-322.633 -164.004)"/><path d="M416.8,169.737l.822,2.515a.392.392,0,0,1-.251.494l-2.515.822a.391.391,0,0,1-.494-.25l-.822-2.516a.392.392,0,0,1,.25-.494l2.516-.822A.392.392,0,0,1,416.8,169.737Zm0,0" transform="translate(-335.986 -137.691)"/><path d="M433.234,137.353l.822,2.516a.392.392,0,0,1-.25.494l-2.515.822a.392.392,0,0,1-.494-.251l-.822-2.515a.392.392,0,0,1,.25-.494l2.515-.822A.391.391,0,0,1,433.234,137.353Zm0,0" transform="translate(-349.338 -111.38)"/><path d="M449.668,104.97l.822,2.515a.392.392,0,0,1-.251.494l-2.515.822a.392.392,0,0,1-.495-.25l-.822-2.515a.392.392,0,0,1,.25-.494l2.515-.822A.392.392,0,0,1,449.668,104.97Zm0,0" transform="translate(-362.69 -85.069)"/><path d="M133.4,334.464l-3.352-10.371a9.1,9.1,0,0,0-6.982-6.144l-17.807-3.335H87.99l-17.807,3.335a9.1,9.1,0,0,0-6.982,6.144l-3.352,10.371a47.995,47.995,0,0,0,73.557,0Zm0,0" transform="translate(-48.626 -255.623)"/><path class="f" d="M189.67,337.238l-3.352-10.371a9.1,9.1,0,0,0-6.982-6.144l-14.388-2.7L129.1,348.093a48.016,48.016,0,0,0,60.573-10.854Zm0,0" transform="translate(-104.892 -258.397)"/><path class="g" d="M154.351,365.426,129.1,386.6a48.036,48.036,0,0,0,49.288-1.022Zm0,0" transform="translate(-104.892 -296.909)"/><path class="c" d="M220.678,244.119a24.142,24.142,0,0,1-21.193,0l1.138-16.725H219.54Zm0,0" transform="translate(-162.081 -184.758)"/><path d="M220.31,238.713l-.771-11.319H200.623l-.771,11.319-.368,5.406a16.353,16.353,0,0,0,2.667,1.146l.385-5.344a21.568,21.568,0,0,0,7.545,1.6A23.6,23.6,0,0,0,220.31,238.713Zm0,0" transform="translate(-162.081 -184.758)"/><path class="h" d="M178.172,15.457C175.795,8.7,170.114,0,156.618,0s-19.177,8.7-21.554,15.457a24.9,24.9,0,0,0-1.042,12.3c.99,6.053,3.171,16.451,6.872,20.014,5.34,5.143,11.966,7.121,15.724,7.121S167,52.909,172.343,47.767c3.7-3.562,5.881-13.961,6.872-20.014A24.911,24.911,0,0,0,178.172,15.457Zm0,0" transform="translate(-108.618 0)"/><path class="f" d="M143.706,47.767c-3.7-3.562-5.881-13.961-6.872-20.014a24.911,24.911,0,0,1,1.042-12.3C140.169,8.942,145.537.616,158.024.034,157.565.012,157.1,0,156.618,0c-13.5,0-19.177,8.7-21.554,15.457a24.9,24.9,0,0,0-1.042,12.3c.99,6.053,3.171,16.452,6.872,20.014,5.34,5.143,11.966,7.121,15.724,7.121a13.193,13.193,0,0,0,1.406-.082A25.744,25.744,0,0,1,143.706,47.767Zm0,0" transform="translate(-108.618)"/><path class="h" d="M84.57,318.027l-14.388,2.7a9.1,9.1,0,0,0-6.982,6.144l-3.352,10.371a48.016,48.016,0,0,0,60.573,10.854Zm0,0" transform="translate(-48.626 -258.397)"/><path class="c" d="M130.2,71.783a24.437,24.437,0,0,0-1.346,6.911,1.059,1.059,0,0,0,1.062,1.1h45.552a1.059,1.059,0,0,0,1.062-1.1,24.412,24.412,0,0,0-1.347-6.911c-.207-.591-.441-1.2-.7-1.81a1.067,1.067,0,0,0-.98-.649H131.887a1.067,1.067,0,0,0-.98.649C130.645,70.587,130.412,71.192,130.2,71.783Zm0,0" transform="translate(-104.696 -56.326)"/><path d="M131.67,78.694a24.437,24.437,0,0,1,1.346-6.911c.208-.591.442-1.2.7-1.81a1.067,1.067,0,0,1,.98-.649h-2.812a1.067,1.067,0,0,0-.98.649c-.261.614-.5,1.219-.7,1.81a24.437,24.437,0,0,0-1.346,6.911,1.059,1.059,0,0,0,1.062,1.1h2.813A1.059,1.059,0,0,1,131.67,78.694Zm0,0" transform="translate(-104.696 -56.326)"/><path class="i" d="M182.515,137.6l-3.55-1.478a17.906,17.906,0,0,0-13.767,0l-3.551,1.478a6.452,6.452,0,1,1-2.48-12.408h25.828a6.452,6.452,0,1,1-2.48,12.408Zm0,0" transform="translate(-124.081 -101.718)"/><path class="j" d="M256,129.4v-4.206h12.914a6.452,6.452,0,1,1-2.48,12.408l-3.551-1.478a17.9,17.9,0,0,0-4.34-1.194l-1.165-1.5A6.577,6.577,0,0,1,256,129.4Zm0,0" transform="translate(-208 -101.718)"/><path class="k" d="M155.527,131.643a6.452,6.452,0,0,1,6.452-6.452h-2.812a6.452,6.452,0,1,0,1.4,12.751A6.449,6.449,0,0,1,155.527,131.643Zm0,0" transform="translate(-124.081 -101.718)"/></svg>