<svg xmlns="http://www.w3.org/2000/svg" width="32" height="32" viewBox="0 0 32 32"><defs><style>.a{fill:none;}.b{fill:#1ce3dc;stroke:rgba(0,0,0,0);stroke-miterlimit:10;}</style></defs><g transform="translate(-541 -357)"><rect class="a" width="32" height="32" transform="translate(541 357)"/><path class="b" d="M-17060.752-2595.762v-16a3.084,3.084,0,0,1,3.127-3h21.711a3.131,3.131,0,0,1,3.166,2.989v16.018a3.1,3.1,0,0,1-3.127,2.993h-21.783A3.088,3.088,0,0,1-17060.752-2595.762Zm1.508.291.1.261a1.636,1.636,0,0,0,1.523,1.032h21.7a1.646,1.646,0,0,0,1.658-1.576v-6.581l-5.268-5.01-8.437,8.011-3.609-3.426Zm0-16.309v14.3l6.293-5.973a2.011,2.011,0,0,1,2.775,0l2.219,2.12,7.047-6.7a2,2,0,0,1,2.77,0l3.889,3.687v-7.446a1.645,1.645,0,0,0-1.645-1.571h-21.7A1.643,1.643,0,0,0-17059.248-2611.78Zm3.314,3.443a1.914,1.914,0,0,1,1.955-1.858,1.911,1.911,0,0,1,1.953,1.858,1.9,1.9,0,0,1-1.953,1.841A1.906,1.906,0,0,1-17055.934-2608.338Z" transform="translate(17603.75 2976.77)"/></g></svg>