<svg xmlns="http://www.w3.org/2000/svg" width="120" height="120" viewBox="0 0 120 120"><defs><style>.a,.c{fill:#ffe03d;}.a{opacity:0.1;}.b{fill:none;}</style></defs><g transform="translate(-454 -327)"><rect class="a" width="120" height="120" rx="10" transform="translate(454 327)"/><g transform="translate(441 -419)"><rect class="b" width="90" height="90" transform="translate(28 761)"/><g transform="translate(39.25 772.249)"><path class="c" d="M417.73,661.785H391.664a2.884,2.884,0,0,0-2.873,2.874v26.058a2.882,2.882,0,0,0,2.873,2.873H417.73a2.91,2.91,0,0,0,2.87-2.873V664.655A2.912,2.912,0,0,0,417.73,661.785Zm-2.881,5.758v20.3h-20.3v-20.3Z" transform="translate(-388.791 -661.785)"/><path class="c" d="M417.73,671.462H391.664a2.885,2.885,0,0,0-2.873,2.877V700.4a2.876,2.876,0,0,0,2.873,2.873H417.73a2.912,2.912,0,0,0,2.87-2.873V674.335A2.912,2.912,0,0,0,417.73,671.462Zm-2.881,5.758v20.3h-20.3v-20.3Z" transform="translate(-388.791 -635.77)"/><path class="c" d="M414.366,693.59a15.9,15.9,0,1,0-15.9-15.9A15.922,15.922,0,0,0,414.366,693.59ZM404.226,677.7a10.141,10.141,0,1,1,10.139,10.125h-.553v0A10.157,10.157,0,0,1,404.226,677.7Z" transform="translate(-362.773 -661.785)"/><path class="c" d="M427.4,671.462H401.345a2.885,2.885,0,0,0-2.877,2.877V700.4a2.877,2.877,0,0,0,2.877,2.873H427.4a2.913,2.913,0,0,0,2.873-2.873V674.335A2.913,2.913,0,0,0,427.4,671.462Zm-2.877,5.758v20.3h-20.3v-20.3Z" transform="translate(-362.776 -635.77)"/></g></g></g></svg>