<svg xmlns="http://www.w3.org/2000/svg" width="24" height="24" viewBox="0 0 24 24"><defs><style>.a{fill:none;}.b{fill:#6e6e6e;}</style></defs><g transform="translate(-28 -761)"><rect class="a" width="24" height="24" transform="translate(28 761)"/><g transform="translate(-357.791 102.215)"><path class="b" d="M396.508,661.785h-6.951a.769.769,0,0,0-.766.766V669.5a.768.768,0,0,0,.766.766h6.951a.776.776,0,0,0,.765-.766v-6.95A.776.776,0,0,0,396.508,661.785Zm-.768,1.535v5.414h-5.414V663.32Z" transform="translate(0 0)"/><path class="b" d="M396.508,671.462h-6.951a.769.769,0,0,0-.766.767v6.949a.767.767,0,0,0,.766.766h6.951a.777.777,0,0,0,.765-.766v-6.95A.777.777,0,0,0,396.508,671.462ZM395.74,673v5.412h-5.414V673Z" transform="translate(0 -0.159)"/><path class="b" d="M402.708,670.266a4.241,4.241,0,1,0-4.239-4.24A4.246,4.246,0,0,0,402.708,670.266ZM400,666.03a2.7,2.7,0,1,1,2.7,2.7h-.148A2.709,2.709,0,0,1,400,666.03Z" transform="translate(-0.159 0)"/><path class="b" d="M406.184,671.462h-6.949a.769.769,0,0,0-.767.767v6.949a.767.767,0,0,0,.767.766h6.949a.777.777,0,0,0,.766-.766v-6.95A.777.777,0,0,0,406.184,671.462ZM405.417,673v5.412H400V673Z" transform="translate(-0.159 -0.159)"/></g></g></svg>