<svg xmlns="http://www.w3.org/2000/svg" width="56" height="56" viewBox="0 0 56 56"><defs><style>.a{fill:#fff;}.b{fill:#1ce3dc;}.c{fill:#232323;}.d{fill:#ffe03d;}.e{fill:#efad04;}.f{fill:#6e6e6e;}.g{fill:#262626;}.h{fill:#333;}.i{fill:#f2b675;}.j{fill:#ffc987;}.k{fill:#e5a565;}</style></defs><circle class="a" cx="28" cy="28" r="28" transform="translate(0 0)"/><g transform="translate(0 16.354)"><path class="b" d="M218.473,154.551a1.677,1.677,0,0,0-1.677-1.677h-6.818a1.677,1.677,0,1,1,0-3.354h19.177a1.677,1.677,0,0,1,1.677,1.677,1.677,1.677,0,0,0,1.677,1.677h4.3a1.677,1.677,0,1,1,0,3.354H225.728a1.677,1.677,0,0,0-1.677,1.677,1.677,1.677,0,0,1-1.677,1.677h-8.239a1.677,1.677,0,1,1,0-3.354H216.8A1.677,1.677,0,0,0,218.473,154.551Zm0,0" transform="translate(-185.518 -149.52)"/><path class="b" d="M16.729,206.475h-4.3A1.678,1.678,0,0,1,10.75,204.8a1.677,1.677,0,0,0-1.677-1.677H.6a28.251,28.251,0,0,0-.274,10.063H2.291a1.677,1.677,0,0,0,1.677-1.677,1.677,1.677,0,0,1,1.677-1.677H16.729a1.677,1.677,0,0,0,0-3.354Zm0,0" transform="translate(0 -197.258)"/><path class="b" d="M345.581,255.293h-18.76a1.677,1.677,0,0,0,0,3.354h6.818a1.677,1.677,0,1,1,0,3.354h-2.661a1.677,1.677,0,0,0,0,3.354h8.239a1.677,1.677,0,0,0,1.677-1.677A1.677,1.677,0,0,1,342.571,262h2.218a28.054,28.054,0,0,0,.792-6.631C345.582,255.345,345.581,255.319,345.581,255.293Zm0,0" transform="translate(-289.582 -243.724)"/></g><path d="M107.628,241.574l-4.542,2.3L116.846,271a28.194,28.194,0,0,0,2.965.156q1.4,0,2.758-.135Zm0,0" transform="translate(-91.811 -215.152)"/><path class="c" d="M129.785,242.4l14.586,28.743q1-.027,1.977-.124l-14.941-29.442Zm0,0" transform="translate(-115.59 -215.152)"/><path class="c" d="M21.5,69.406l-2.728,1.385a.774.774,0,0,0-.34,1.041l9.4,18.525,4.11-2.085-9.4-18.525A.775.775,0,0,0,21.5,69.406Zm0,0" transform="translate(-16.339 -61.74)"/><path d="M20.484,74.256l9.4,18.526L27.83,93.824,18.429,75.3a.774.774,0,0,1,.34-1.041l2.055-1.043A.775.775,0,0,0,20.484,74.256Zm0,0" transform="translate(-16.339 -65.207)"/><path class="d" d="M80.661,219.375l-8.829,4.48a1.356,1.356,0,0,0,1.227,2.419l8.829-4.481a1.356,1.356,0,0,0-1.227-2.419Zm0,0" transform="translate(-63.314 -195.25)"/><path class="e" d="M72.859,255.835a1.356,1.356,0,0,0,1.823.6l-1.622.823a1.356,1.356,0,0,1-1.227-2.419l1.622-.823A1.356,1.356,0,0,0,72.859,255.835Zm0,0" transform="translate(-63.314 -226.229)"/><path d="M93.424,202.008l-.48,1.467a.229.229,0,0,0,.147.288l1.467.479a.228.228,0,0,0,.288-.146l.479-1.467a.228.228,0,0,0-.146-.288l-1.467-.48A.229.229,0,0,0,93.424,202.008Zm0,0" transform="translate(-82.768 -179.773)"/><path d="M76.988,169.624l-.479,1.467a.229.229,0,0,0,.147.288l1.467.479a.228.228,0,0,0,.288-.146l.479-1.468a.229.229,0,0,0-.146-.288l-1.468-.479A.229.229,0,0,0,76.988,169.624Zm0,0" transform="translate(-68.131 -150.931)"/><path d="M60.558,137.241l-.479,1.468a.229.229,0,0,0,.146.288l1.467.479a.229.229,0,0,0,.288-.147l.479-1.467a.229.229,0,0,0-.146-.288l-1.467-.479A.228.228,0,0,0,60.558,137.241Zm0,0" transform="translate(-53.498 -122.09)"/><path d="M44.122,104.858l-.479,1.467a.229.229,0,0,0,.147.288l1.467.479a.228.228,0,0,0,.288-.146l.479-1.467a.228.228,0,0,0-.146-.288l-1.467-.479A.229.229,0,0,0,44.122,104.858Zm0,0" transform="translate(-38.86 -93.249)"/><path d="M230.781,271.017q1.361.133,2.758.135A28.18,28.18,0,0,0,236.5,271l13.761-27.116-4.542-2.3Zm0,0" transform="translate(-205.54 -215.152)"/><path class="c" d="M245.722,241.574l-14.941,29.442q.979.1,1.977.124L247.344,242.4Zm0,0" transform="translate(-205.54 -215.152)"/><path class="c" d="M379.805,69.406l2.728,1.385a.774.774,0,0,1,.34,1.041l-9.4,18.525-4.11-2.085,9.4-18.526A.775.775,0,0,1,379.805,69.406Zm0,0" transform="translate(-328.964 -61.74)"/><path d="M397.55,74.256l-9.4,18.526,2.055,1.042L399.6,75.3a.774.774,0,0,0-.34-1.041l-2.055-1.043A.775.775,0,0,1,397.55,74.256Zm0,0" transform="translate(-345.695 -65.207)"/><path class="d" d="M337.355,219.375l8.829,4.48a1.356,1.356,0,0,1-1.227,2.419l-8.829-4.481a1.356,1.356,0,1,1,1.227-2.419Zm0,0" transform="translate(-298.702 -195.25)"/><path class="e" d="M409.889,255.835a1.356,1.356,0,0,1-1.823.6l1.622.823a1.356,1.356,0,0,0,1.227-2.419l-1.622-.823A1.356,1.356,0,0,1,409.889,255.835Zm0,0" transform="translate(-363.434 -226.229)"/><path d="M399,202.008l.48,1.467a.229.229,0,0,1-.146.288l-1.467.479a.228.228,0,0,1-.288-.146l-.479-1.467a.228.228,0,0,1,.146-.288l1.467-.48A.229.229,0,0,1,399,202.008Zm0,0" transform="translate(-353.656 -179.773)"/><path d="M415.434,169.624l.479,1.467a.229.229,0,0,1-.147.288l-1.467.479a.228.228,0,0,1-.288-.146l-.479-1.468a.229.229,0,0,1,.146-.288l1.468-.479A.229.229,0,0,1,415.434,169.624Zm0,0" transform="translate(-368.292 -150.931)"/><path d="M431.867,137.241l.479,1.468a.228.228,0,0,1-.146.288l-1.467.479a.229.229,0,0,1-.288-.147l-.479-1.467a.228.228,0,0,1,.146-.288l1.467-.479A.228.228,0,0,1,431.867,137.241Zm0,0" transform="translate(-382.928 -122.09)"/><path d="M448.3,104.858l.479,1.467a.229.229,0,0,1-.147.288l-1.467.479a.228.228,0,0,1-.288-.146l-.479-1.467a.228.228,0,0,1,.146-.288l1.467-.479A.229.229,0,0,1,448.3,104.858Zm0,0" transform="translate(-397.564 -93.249)"/><path d="M102.756,326.193l-1.956-6.05a5.307,5.307,0,0,0-4.073-3.584L86.34,314.613H76.264l-10.388,1.946a5.307,5.307,0,0,0-4.073,3.584l-1.956,6.05a28,28,0,0,0,42.908,0Zm0,0" transform="translate(-53.302 -280.203)"/><path class="f" d="M164.432,329.234l-1.956-6.05A5.307,5.307,0,0,0,158.4,319.6l-8.393-1.572L129.1,335.565a28.009,28.009,0,0,0,35.334-6.332Zm0,0" transform="translate(-114.978 -283.243)"/><path class="g" d="M143.829,365.426,129.1,377.78a28.021,28.021,0,0,0,28.752-.6Zm0,0" transform="translate(-114.978 -325.457)"/><path class="c" d="M211.847,237.151a14.083,14.083,0,0,1-12.363,0l.664-9.756h11.035Zm0,0" transform="translate(-177.666 -202.523)"/><path d="M211.633,234l-.449-6.6H200.148L199.7,234l-.214,3.153a9.54,9.54,0,0,0,1.556.668l.224-3.118a12.581,12.581,0,0,0,4.4.934A13.769,13.769,0,0,0,211.633,234Zm0,0" transform="translate(-177.666 -202.523)"/><path class="h" d="M159.635,9.017C158.249,5.077,154.934,0,147.062,0s-11.187,5.077-12.573,9.017a14.527,14.527,0,0,0-.608,7.173c.578,3.531,1.85,9.6,4.008,11.675a14.485,14.485,0,0,0,9.173,4.154,14.488,14.488,0,0,0,9.173-4.154c2.158-2.078,3.43-8.144,4.008-11.675A14.532,14.532,0,0,0,159.635,9.017Zm0,0" transform="translate(-119.062 0)"/><path class="f" d="M139.53,27.864c-2.158-2.078-3.431-8.144-4.009-11.675a14.532,14.532,0,0,1,.608-7.173c1.338-3.8,4.469-8.657,11.753-9-.268-.012-.541-.02-.82-.02-7.872,0-11.187,5.077-12.573,9.017a14.527,14.527,0,0,0-.608,7.173c.578,3.531,1.85,9.6,4.008,11.675a14.485,14.485,0,0,0,9.173,4.154,7.7,7.7,0,0,0,.82-.048A15.017,15.017,0,0,1,139.53,27.864Zm0,0" transform="translate(-119.062 0)"/><path class="h" d="M74.269,318.027,65.876,319.6a5.307,5.307,0,0,0-4.073,3.584l-1.956,6.05a28.009,28.009,0,0,0,35.334,6.332Zm0,0" transform="translate(-53.302 -283.243)"/><path class="c" d="M129.642,70.758a14.255,14.255,0,0,0-.785,4.031.618.618,0,0,0,.62.644h26.572a.618.618,0,0,0,.62-.644,14.241,14.241,0,0,0-.786-4.031c-.121-.345-.257-.7-.41-1.056a.622.622,0,0,0-.572-.379H130.624a.622.622,0,0,0-.572.379C129.9,70.061,129.764,70.414,129.642,70.758Zm0,0" transform="translate(-114.763 -61.742)"/><path d="M130.5,74.79a14.255,14.255,0,0,1,.785-4.031c.121-.345.258-.7.41-1.056a.622.622,0,0,1,.572-.379h-1.641a.622.622,0,0,0-.572.379c-.153.358-.289.711-.41,1.056a14.255,14.255,0,0,0-.785,4.031.618.618,0,0,0,.62.644h1.641A.618.618,0,0,1,130.5,74.79Zm0,0" transform="translate(-114.763 -61.742)"/><path class="i" d="M170.1,132.429l-2.071-.862a10.445,10.445,0,0,0-8.031,0l-2.071.862a3.764,3.764,0,1,1-1.447-7.238h15.066a3.764,3.764,0,1,1-1.447,7.238Zm0,0" transform="translate(-136.012 -111.499)"/><path class="j" d="M256,127.645v-2.454h7.533a3.764,3.764,0,1,1-1.447,7.238l-2.071-.862a10.44,10.44,0,0,0-2.532-.7l-.68-.877A3.836,3.836,0,0,1,256,127.645Zm0,0" transform="translate(-228 -111.499)"/><path class="k" d="M154.355,128.955a3.764,3.764,0,0,1,3.764-3.764h-1.641a3.764,3.764,0,1,0,.816,7.438A3.762,3.762,0,0,1,154.355,128.955Zm0,0" transform="translate(-136.012 -111.499)"/></svg>