<svg xmlns="http://www.w3.org/2000/svg" width="70" height="17.093" viewBox="0 0 70 17.093"><defs><style>.a{fill:#253b80;}.b{fill:#179bd7;}.c{fill:#222d65;}</style></defs><g transform="translate(0)"><path class="a" d="M41.636,6.749H37.762a.538.538,0,0,0-.532.454l-1.567,9.933a.322.322,0,0,0,.319.373h1.849a.538.538,0,0,0,.532-.455l.423-2.679a.538.538,0,0,1,.531-.455h1.226c2.552,0,4.024-1.235,4.409-3.682a2.984,2.984,0,0,0-.494-2.5A3.594,3.594,0,0,0,41.636,6.749Zm.447,3.628c-.212,1.39-1.274,1.39-2.3,1.39H39.2l.41-2.6a.323.323,0,0,1,.319-.272h.268c.7,0,1.359,0,1.7.4A1.291,1.291,0,0,1,42.083,10.377Z" transform="translate(-15.462 -2.926)"/><path class="a" d="M59.938,12.941H58.083a.323.323,0,0,0-.319.272l-.082.519-.13-.188a2.64,2.64,0,0,0-2.191-.778A4.266,4.266,0,0,0,51.22,16.5a3.5,3.5,0,0,0,.691,2.85,2.9,2.9,0,0,0,2.336.944,3.549,3.549,0,0,0,2.568-1.062l-.083.515a.323.323,0,0,0,.318.374h1.671a.538.538,0,0,0,.532-.455l1-6.349A.322.322,0,0,0,59.938,12.941Zm-2.586,3.61a2.067,2.067,0,0,1-2.093,1.771,1.437,1.437,0,0,1-1.537-1.8A2.076,2.076,0,0,1,55.8,14.734a1.565,1.565,0,0,1,1.237.505A1.606,1.606,0,0,1,57.352,16.552Z" transform="translate(-22.184 -5.536)"/><path class="a" d="M77.48,13.075H75.616a.54.54,0,0,0-.446.236L72.6,17.1l-1.09-3.639a.54.54,0,0,0-.517-.384H69.161a.323.323,0,0,0-.306.427l2.053,6.025-1.93,2.725a.323.323,0,0,0,.263.51H71.1a.537.537,0,0,0,.442-.231l6.2-8.949A.323.323,0,0,0,77.48,13.075Z" transform="translate(-29.847 -5.669)"/><path class="b" d="M90.417,6.749H86.543a.538.538,0,0,0-.531.454l-1.567,9.933a.322.322,0,0,0,.318.373h1.988a.377.377,0,0,0,.372-.318l.445-2.816a.538.538,0,0,1,.531-.455h1.226c2.552,0,4.024-1.235,4.409-3.682a2.982,2.982,0,0,0-.494-2.5A3.59,3.59,0,0,0,90.417,6.749Zm.447,3.628c-.211,1.39-1.273,1.39-2.3,1.39h-.584l.411-2.6a.322.322,0,0,1,.318-.272h.268c.7,0,1.359,0,1.7.4A1.291,1.291,0,0,1,90.864,10.377Z" transform="translate(-36.613 -2.926)"/><path class="b" d="M108.72,12.941h-1.854a.321.321,0,0,0-.318.272l-.082.519-.13-.188a2.639,2.639,0,0,0-2.19-.778A4.265,4.265,0,0,0,100,16.5a3.5,3.5,0,0,0,.69,2.85,2.9,2.9,0,0,0,2.336.944,3.549,3.549,0,0,0,2.568-1.062l-.083.515a.323.323,0,0,0,.319.374h1.67a.538.538,0,0,0,.531-.455l1-6.349A.323.323,0,0,0,108.72,12.941Zm-2.586,3.61a2.067,2.067,0,0,1-2.093,1.771,1.437,1.437,0,0,1-1.537-1.8,2.077,2.077,0,0,1,2.079-1.785,1.565,1.565,0,0,1,1.237.505A1.6,1.6,0,0,1,106.134,16.552Z" transform="translate(-43.337 -5.536)"/><path class="b" d="M118.075,7.021l-1.59,10.115a.322.322,0,0,0,.318.373h1.6a.537.537,0,0,0,.532-.455L120.5,7.121a.323.323,0,0,0-.318-.373h-1.79A.324.324,0,0,0,118.075,7.021Z" transform="translate(-50.505 -2.926)"/><path class="a" d="M4.576,16.957l.3-1.882-.66-.015H1.061L3.251,1.176a.183.183,0,0,1,.061-.109.179.179,0,0,1,.117-.043H8.741c1.764,0,2.981.367,3.617,1.091A2.488,2.488,0,0,1,12.937,3.2a3.92,3.92,0,0,1,0,1.5l-.007.044v.383l.3.169a2.09,2.09,0,0,1,.6.46,2.142,2.142,0,0,1,.489,1.1,4.643,4.643,0,0,1-.07,1.593,5.609,5.609,0,0,1-.653,1.8,3.708,3.708,0,0,1-1.034,1.133,4.194,4.194,0,0,1-1.392.628,6.943,6.943,0,0,1-1.74.2H9.024a1.244,1.244,0,0,0-1.23,1.05l-.031.169-.523,3.316-.024.122a.1.1,0,0,1-.033.071.088.088,0,0,1-.054.02Z" transform="translate(-0.46 -0.444)"/><path class="b" d="M15.738,7.667h0q-.024.152-.054.312c-.7,3.6-3.1,4.84-6.159,4.84H7.966a.757.757,0,0,0-.748.641h0l-.8,5.061-.226,1.435a.4.4,0,0,0,.394.461H9.352a.665.665,0,0,0,.657-.561l.027-.14.521-3.3.033-.181a.665.665,0,0,1,.657-.562h.413c2.679,0,4.775-1.088,5.388-4.234a3.605,3.605,0,0,0-.554-3.184A2.643,2.643,0,0,0,15.738,7.667Z" transform="translate(-2.683 -3.324)"/><path class="c" d="M15.793,6.958q-.161-.047-.331-.085t-.351-.066a8.657,8.657,0,0,0-1.374-.1H9.573a.664.664,0,0,0-.656.562L8.03,12.88l-.025.164a.757.757,0,0,1,.748-.641h1.559c3.061,0,5.458-1.243,6.159-4.84.021-.106.039-.21.054-.312a3.735,3.735,0,0,0-.576-.243Z" transform="translate(-3.471 -2.908)"/><path class="a" d="M5.445,4.361A.664.664,0,0,1,6.1,3.8h4.164a8.657,8.657,0,0,1,1.374.1q.18.029.351.066t.331.085l.157.049a3.791,3.791,0,0,1,.576.243,3.4,3.4,0,0,0-.72-3.054C11.542.386,10.112,0,8.282,0H2.969a.759.759,0,0,0-.75.642L.006,14.669a.456.456,0,0,0,.45.528h3.28L4.56,9.972Z"/></g></svg>