<svg xmlns="http://www.w3.org/2000/svg" width="120" height="120" viewBox="0 0 120 120"><defs><style>.a,.c{fill:#ffe03d;}.a{opacity:0.1;}.b{fill:none;}</style></defs><g transform="translate(-494 -272)"><rect class="a" width="120" height="120" rx="10" transform="translate(494 272)"/><g transform="translate(-5 -2)"><rect class="b" width="90" height="90" transform="translate(514 289)"/><path class="c" d="M45.1,5.156H38.735V2.617A2.617,2.617,0,0,0,36.118,0H15.528a2.617,2.617,0,0,0-2.617,2.617V5.156H6.543A6.55,6.55,0,0,0,0,11.7V60.457A6.55,6.55,0,0,0,6.543,67H45.1a6.55,6.55,0,0,0,6.543-6.543V11.7A6.551,6.551,0,0,0,45.1,5.156Zm-11.6.079v5.077H18.145V5.234ZM46.413,60.457A1.31,1.31,0,0,1,45.1,61.766H6.543a1.31,1.31,0,0,1-1.309-1.309V11.7A1.31,1.31,0,0,1,6.543,10.39h6.368v2.539a2.617,2.617,0,0,0,2.617,2.617h20.59a2.617,2.617,0,0,0,2.617-2.617V10.39H45.1A1.31,1.31,0,0,1,46.413,11.7Zm-8.445-29.9a2.617,2.617,0,0,1,0,3.7L24.214,48.013a2.617,2.617,0,0,1-3.7,0l-6.835-6.835a2.617,2.617,0,1,1,3.7-3.7l4.984,4.984,11.9-11.9A2.617,2.617,0,0,1,37.968,30.558Zm0,0" transform="translate(533 301)"/></g></g></svg>