<svg xmlns="http://www.w3.org/2000/svg" xmlns:xlink="http://www.w3.org/1999/xlink" width="24" height="24" viewBox="0 0 24 24"><defs><style>.a,.b{fill:#6e6e6e;}.b{opacity:0;}.c{clip-path:url(#a);}.d{fill:none;}</style><clipPath id="a"><rect class="a" width="24" height="24"/></clipPath></defs><rect class="b" width="24" height="24"/><g class="c"><rect class="d" width="24" height="24"/><path class="a" d="M8.25,20.063A3.427,3.427,0,0,1,5.1,17.981a2.275,2.275,0,0,1-1.512-2.142,1.809,1.809,0,0,1,.083-.558H0A6.559,6.559,0,0,1,3.75,9.354V5.468A1.5,1.5,0,0,1,4.1,4.5L7.676.267a.75.75,0,0,1,1.148,0L12.4,4.5a1.485,1.485,0,0,1,.355.966V9.354A6.56,6.56,0,0,1,16.5,15.281l-3.66,0a2.138,2.138,0,0,1,.072.558A2.265,2.265,0,0,1,11.4,17.981a3.429,3.429,0,0,1-3.15,2.082ZM6.386,16.432h0l.066.456a1.816,1.816,0,0,0,3.6,0l.066-.455.457.057a.62.62,0,0,0,.084.006.627.627,0,0,0,.316-.086.664.664,0,0,0,.333-.574.616.616,0,0,0-.342-.557H5.54a.621.621,0,0,0-.342.557.656.656,0,0,0,.732.654l.455-.058Zm6.269-5.306v2.561h1.988a4.97,4.97,0,0,0-1.988-2.561ZM8.25,2.057,5.343,5.5v8.184h5.813V5.5L8.25,2.057ZM3.844,11.126a4.959,4.959,0,0,0-1.987,2.561H3.844ZM8.25,8.531a1.133,1.133,0,0,1-.8-.329,1.126,1.126,0,0,1,0-1.591,1.125,1.125,0,1,1,.8,1.921Z" transform="translate(3.75 1.969)"/></g></svg>