<svg xmlns="http://www.w3.org/2000/svg" width="18" height="18" viewBox="0 0 18 18"><defs><style>.a{fill:none;}.b{fill:#333;}</style></defs><g transform="translate(-655 -299)"><rect class="a" width="18" height="18" transform="translate(655 299)"/><g transform="translate(656.5 302)"><path class="b" d="M105.72,275.6v3.135a.291.291,0,0,1-.274.292H93.555a.291.291,0,0,1-.274-.292V275.6H92v3.135a1.572,1.572,0,0,0,1.555,1.572h11.89A1.572,1.572,0,0,0,107,278.735V275.6Z" transform="translate(-92 -269.102)"/><path class="b" d="M179.5,135.584v6.872h1.28v-6.872l2.09,2.088.905-.9-3.183-3.18a.641.641,0,0,0-.905,0l-3.183,3.18.905.9Z" transform="translate(-172.636 -133.4)"/></g></g></svg>