<svg xmlns="http://www.w3.org/2000/svg" width="40" height="40" viewBox="0 0 40 40"><defs><style>.a{fill:#ffe03d;opacity:0.1;}.b,.c{fill:#6e6e6e;}.b{opacity:0;}</style></defs><g transform="translate(-19 -305)"><circle class="a" cx="16.5" cy="16.5" r="16.5" transform="translate(23 305)"/><g transform="translate(1)"><rect class="b" width="40" height="40" transform="translate(18 305)"/><g transform="translate(-895.678 -221.786)"><path class="c" d="M944.048,537.109a.406.406,0,0,1,.212.235l.553,1.551a.082.082,0,0,0,.055.061.086.086,0,0,0,.091-.051l.558-1.564a.4.4,0,0,1,.208-.231l1.388-.623a.123.123,0,0,0,.043-.048.125.125,0,0,0-.052-.168l-1.375-.617a.408.408,0,0,1-.212-.235l-.557-1.561a.074.074,0,0,0-.05-.051.083.083,0,0,0-.021,0,.075.075,0,0,0-.036.01.072.072,0,0,0-.034.043l-.558,1.564a.4.4,0,0,1-.208.231l-1.388.623a.14.14,0,0,0-.043.048.126.126,0,0,0,.052.169Z" transform="translate(0.218 0.016)"/><path class="c" d="M939.028,534.149a1.056,1.056,0,1,0-1.06-1.056A1.058,1.058,0,0,0,939.028,534.149Z" transform="translate(0.179 0.007)"/><path class="c" d="M946.557,531.5a.367.367,0,0,0,.2-.2.361.361,0,0,0,0-.283.371.371,0,0,0-.343-.228.365.365,0,0,0-.142.028.37.37,0,1,0,.284.684Z" transform="translate(0.247)"/><path class="c" d="M948.8,545.328a11.268,11.268,0,0,0-9.36-5.043h-.056a11.283,11.283,0,0,0-1.839.151l-.1.016-.053-.083a11.163,11.163,0,0,0-5.487-4.348l-.172-.064.493-.8a1.454,1.454,0,0,0-.153-1.741l-1.346-1.521a1.482,1.482,0,0,0-1.107-.5h-3.333a1.482,1.482,0,0,0-1.107.5l-1.347,1.52a1.45,1.45,0,0,0-.153,1.74l.5.822-.171.063a11.253,11.253,0,0,0,5.815,21.638l.1-.017.053.081a11.321,11.321,0,0,0,15.64,3.177,11.228,11.228,0,0,0,3.186-15.591ZM924.623,534.1l1.345-1.52a.429.429,0,0,1,.322-.145h3.334a.429.429,0,0,1,.321.144l1.347,1.522a.421.421,0,0,1,.044.506l-.636,1.039-.107-.024a11.44,11.44,0,0,0-5.264.012l-.107.025-.645-1.053A.423.423,0,0,1,924.623,534.1Zm5.161,22.5a10.44,10.44,0,0,1-1.829.163,10.2,10.2,0,1,1,.022-20.4h0a10.286,10.286,0,0,1,8.243,4.154l.128.172-.207.061a11.184,11.184,0,0,0-1.729.679l-.107.052-.077-.091a8.122,8.122,0,1,0-1.05,11.416,8.074,8.074,0,0,0,2.931-6.237,8.364,8.364,0,0,0-.082-1.145l-.015-.1.095-.049a7.053,7.053,0,0,1,1.767-.64l.153-.033.027.155a10.212,10.212,0,0,1-8.274,11.85Zm-1.521-3.146.03.176h-.317a7.083,7.083,0,0,1-7.084-7.064,7.074,7.074,0,0,1,7.085-7.062h0a7.1,7.1,0,0,1,5.289,2.364l.038.042v.14l-.069.047A11.214,11.214,0,0,0,928.264,553.463Zm6.795-7.051c0,.054,0,.109,0,.166a7.026,7.026,0,0,1-2.507,5.386l-.249.21v-.325c0-.048,0-.1,0-.144l0-.1h0v-.063a7.029,7.029,0,0,1,2.508-5.386l.248-.21v.325C935.054,546.316,935.056,546.363,935.058,546.412Zm4.056-1.693-.361-.24.631,0h.006a7.083,7.083,0,0,1,7.085,7.058A7.076,7.076,0,0,1,939.4,558.6h-.007a7.1,7.1,0,0,1-5.291-2.368l-.118-.13.148-.1A11.233,11.233,0,0,0,939.114,544.719Zm2.091,16.869a10.314,10.314,0,0,1-1.824.163h-.5l.02-.014a10.285,10.285,0,0,1-7.763-4.147l-.128-.173.206-.06a11.3,11.3,0,0,0,1.729-.679l.107-.052.077.092a8.075,8.075,0,1,0-1.8-4.033l.015.107-.095.049a7.081,7.081,0,0,1-1.767.639l-.153.033-.027-.154a10.24,10.24,0,1,1,11.9,8.229Z" transform="translate(0 0.003)"/></g></g></g></svg>