<svg xmlns="http://www.w3.org/2000/svg" width="40" height="40" viewBox="0 0 40 40"><defs><style>.a{fill:#ffe03d;opacity:0.1;}.b,.c{fill:#6e6e6e;}.b{opacity:0;}</style></defs><g transform="translate(-19 -305)"><circle class="a" cx="16.5" cy="16.5" r="16.5" transform="translate(23 305)"/><g transform="translate(1)"><rect class="b" width="40" height="40" transform="translate(18 305)"/><g transform="translate(21 307.999)"><path class="c" d="M166.319,427.172a1.712,1.712,0,0,0-1.71,1.71.5.5,0,1,0,1.006,0,.7.7,0,0,1,1.408,0,.5.5,0,1,0,1.006,0A1.712,1.712,0,0,0,166.319,427.172Zm0,0" transform="translate(-153.678 -398.804)"/><path class="c" d="M283.46,446.359a1.712,1.712,0,0,0-1.71,1.71.5.5,0,0,0,1.006,0,.7.7,0,0,1,1.408,0,.5.5,0,0,0,1.006,0A1.712,1.712,0,0,0,283.46,446.359Zm0,0" transform="translate(-263.04 -416.718)"/><path class="c" d="M407.273,472.512a.4.4,0,1,1-.4-.4A.4.4,0,0,1,407.273,472.512Zm0,0" transform="translate(-379.477 -440.758)"/><path class="c" d="M112.395,456.355a.4.4,0,1,1-.4-.4A.4.4,0,0,1,112.395,456.355Zm0,0" transform="translate(-104.18 -425.674)"/><path class="c" d="M30.68,30.178a3.335,3.335,0,0,0-.758.087,5.448,5.448,0,0,0-2.033-1.694l2.5-1.561a5.023,5.023,0,0,0,2.282-3.383l1.071-6.075a.5.5,0,0,0-.408-.583l-.909-.16a.5.5,0,0,0-.175.991l.414.073-.984,5.58a4.015,4.015,0,0,1-1.824,2.7l-2.71,1.693a1.761,1.761,0,0,1-.738.256,5.511,5.511,0,0,0-.891-.073q-.2,0-.4.015a3.643,3.643,0,0,0-3-2.53l-.657-.841a3.987,3.987,0,0,1-.825-2.014,3.682,3.682,0,0,0,1.841.53h0a3.223,3.223,0,0,0,1.327-.29c2.283-1.025,3.48-4.588,3.53-4.739a.5.5,0,0,0-.3-.628,11.8,11.8,0,0,0-3.7-.7,5.21,5.21,0,0,0-1.9.32l.216-1.222,4,.706h0l3,.529h0l1.313.231a.5.5,0,1,0,.175-.991l-.818-.144.638-3.615,1.352-7.67,1.56.275a.513.513,0,0,0,.088.008.5.5,0,0,0,.495-.416l.529-3a.5.5,0,0,0-.408-.583L26.474.009a.5.5,0,0,0-.583.408l-.529,3A.5.5,0,0,0,25.77,4l1.56.275-.266,1.508a.5.5,0,1,0,.99.175l.266-1.508L30.33,4.8l-1.265,7.175-2.009-.354L27.642,8.3a.5.5,0,0,0-.991-.175l-.673,3.816-.638,3.615-4-.706a.5.5,0,0,0-.583.408l-.463,2.626a4.046,4.046,0,0,0-1.017,3.154,6.218,6.218,0,0,0-1.77,1.254V16.569a3.567,3.567,0,0,0,2.548-3.256c0-2.44-2.572-5.252-2.682-5.371a.5.5,0,0,0-.739,0c-.11.119-2.682,2.93-2.682,5.371A3.567,3.567,0,0,0,16.5,16.569v4.72a6.226,6.226,0,0,0-1.77-1.254,3.728,3.728,0,0,0-1.859-3.753,4.893,4.893,0,0,0-2.209-.455,11.8,11.8,0,0,0-3.7.7.5.5,0,0,0-.3.628c.05.151,1.247,3.715,3.53,4.739a3.225,3.225,0,0,0,1.327.29,4.235,4.235,0,0,0,2.784-1.238,5.77,5.77,0,0,1,2.191,1.9V26.2a3.132,3.132,0,0,0-1.346.567,3.656,3.656,0,0,0-6.267,1.285c-.134-.01-.268-.015-.4-.015a5.437,5.437,0,0,0-4.406,2.233A3.323,3.323,0,0,0,0,33.5a.5.5,0,0,0,.5.5H33.5a.5.5,0,0,0,.5-.5A3.323,3.323,0,0,0,30.68,30.178ZM26.795,1.087l6.12,1.079L32.56,4.175,31,3.9,28,3.37h0L26.44,3.1Zm.087,11.527,2.009.354-.55,3.12-2.009-.354ZM10.606,20.979c-1.444-.648-2.427-2.728-2.809-3.668a10.36,10.36,0,0,1,2.862-.478,3.911,3.911,0,0,1,1.756.348,2.6,2.6,0,0,1,1.321,2.4l-2.42-1.157a.5.5,0,0,0-.434.908l2.42,1.157a2.984,2.984,0,0,1-1.78.692A2.224,2.224,0,0,1,10.606,20.979Zm12.735-3.14a10.4,10.4,0,0,1,2.862.479c-.381.94-1.361,3.017-2.809,3.667a2.227,2.227,0,0,1-.915.2h0a3,3,0,0,1-1.778-.693l2.417-1.155a.5.5,0,0,0-.434-.908l-2.416,1.155a2.606,2.606,0,0,1,1.317-2.4A3.914,3.914,0,0,1,23.341,17.839Zm-3.729,4.155a4.98,4.98,0,0,0,1.058,3.3l.207.265a3.614,3.614,0,0,0-2.029,1.2A3.131,3.131,0,0,0,17.5,26.2V23.857A5.815,5.815,0,0,1,19.612,21.994Zm-4.657-8.682c0-1.548,1.369-3.423,2.046-4.255.677.831,2.045,2.7,2.045,4.255A2.417,2.417,0,0,1,17.5,15.476V13.514a.5.5,0,1,0-1.006,0v1.959A2.428,2.428,0,0,1,14.955,13.312ZM1.061,32.995a2.316,2.316,0,0,1,3.053-1.671.5.5,0,0,0,.6-.2,4.441,4.441,0,0,1,3.772-2.082,4.5,4.5,0,0,1,.706.056.5.5,0,0,0,.575-.411,2.649,2.649,0,0,1,4.876-.915.5.5,0,0,0,.8.079,2.112,2.112,0,0,1,3.117,0,.5.5,0,0,0,.8-.079,2.649,2.649,0,0,1,4.876.915.5.5,0,0,0,.575.411,4.5,4.5,0,0,1,.706-.056,4.441,4.441,0,0,1,3.772,2.082.5.5,0,0,0,.6.2,2.316,2.316,0,0,1,3.053,1.671Zm0,0" transform="translate(0 0)"/></g></g></g></svg>