<svg xmlns="http://www.w3.org/2000/svg" width="40" height="40" viewBox="0 0 40 40"><defs><style>.a{fill:#ffe03d;opacity:0.1;}.b,.c{fill:#6e6e6e;}.b{opacity:0;}</style></defs><g transform="translate(-19 -305)"><circle class="a" cx="16.5" cy="16.5" r="16.5" transform="translate(23 305)"/><g transform="translate(1)"><rect class="b" width="40" height="40" transform="translate(18 305)"/><g transform="translate(-787.444 -281.919)"><path class="c" d="M825.264,600.167a8.105,8.105,0,1,0,8.314,8.1A8.259,8.259,0,0,0,825.264,600.167Zm.069,14.806h-.086a6.7,6.7,0,1,1,6.875-6.7A6.8,6.8,0,0,1,825.333,614.973Z" transform="translate(0.188 0.152)"/><path class="c" d="M842.433,599.958a2.865,2.865,0,0,0-2.859-2.81h-5.011l-1.97-3.838a.728.728,0,0,0-.647-.39H818.922a.731.731,0,0,0-.653.392l-1.966,3.837-4.965.005h-.028a2.87,2.87,0,0,0-2.865,2.819V619a2.865,2.865,0,0,0,2.86,2.815h28.275a2.868,2.868,0,0,0,2.865-2.822ZM840.989,619a1.436,1.436,0,0,1-1.431,1.415H811.325A1.432,1.432,0,0,1,809.9,619V599.966a1.435,1.435,0,0,1,1.43-1.413h.012l5.408-.007h0a.733.733,0,0,0,.65-.393l1.965-3.836h12.12l1.97,3.838a.729.729,0,0,0,.647.391h5.43a1.449,1.449,0,0,1,1.455,1.4Z" transform="translate(0 0)"/></g></g></g></svg>