<svg xmlns="http://www.w3.org/2000/svg" width="40" height="40" viewBox="0 0 40 40"><defs><style>.a{fill:#ffe03d;opacity:0.1;}.b,.c{fill:#6e6e6e;}.b{opacity:0;}</style></defs><g transform="translate(-19 -305)"><circle class="a" cx="16.5" cy="16.5" r="16.5" transform="translate(23 305)"/><g transform="translate(1)"><rect class="b" width="40" height="40" transform="translate(18 305)"/><g transform="translate(-813.194 -337.42)"><path class="c" d="M867.973,674.722h-2.514v-6.293a.575.575,0,0,0-.573-.574H852.895a.575.575,0,0,0-.573.574v6.292h-2.938l.094-.154a6.585,6.585,0,0,0-2.2-9.047q-.181-.108-.369-.207l-.055-.028v-2.473a.575.575,0,0,0-.573-.573h-1.848v-1.731l.088-.012a3.438,3.438,0,0,0,1.7-.714,2.252,2.252,0,0,0,.758-1.252l.023-.11.108.035a2.263,2.263,0,0,0,1.477-.033,4.02,4.02,0,0,0,2.352-4.086,2.238,2.238,0,0,0-.706-1.279l-.084-.076.084-.075a2.241,2.241,0,0,0,.707-1.286,4.018,4.018,0,0,0-2.36-4.076,2.253,2.253,0,0,0-1.472-.033l-.108.035-.023-.111a2.241,2.241,0,0,0-.758-1.25,4.029,4.029,0,0,0-4.731,0,2.237,2.237,0,0,0-.755,1.247l-.024.11-.107-.035a2.257,2.257,0,0,0-1.477.031,4.019,4.019,0,0,0-2.354,4.082,2.238,2.238,0,0,0,.706,1.28l.083.075-.083.076a2.25,2.25,0,0,0-.709,1.287,4.024,4.024,0,0,0,2.362,4.079,2.264,2.264,0,0,0,1.471.03l.108-.035.023.11a2.243,2.243,0,0,0,.76,1.252,3.428,3.428,0,0,0,1.7.714l.088.012v1.731h-1.847a.574.574,0,0,0-.573.573v2.474l-.054.029a6.582,6.582,0,0,0-2.777,8.885c.066.126.135.25.21.372l.095.154h-3.573a.575.575,0,0,0-.573.573v1.673a2.46,2.46,0,0,0,2.451,2.451h29.45a2.459,2.459,0,0,0,2.451-2.451V675.3A.575.575,0,0,0,867.973,674.722ZM853.466,669h10.846v5.719H853.466Zm-11.221-10.091c-.2-.165-.77-.644-.054-1.9h0l.014-.023a.574.574,0,0,0-.643-.843.567.567,0,0,0-.349.265c-.741,1.28-1.456,1.017-1.691.933a2.919,2.919,0,0,1-1.621-2.786c.077-.462.427-1,1.657-1a.574.574,0,0,0,0-1.147c-.982,0-1.539-.332-1.656-.989a2.925,2.925,0,0,1,1.609-2.792c.249-.088.966-.344,1.7.929a.572.572,0,0,0,.783.208.575.575,0,0,0,.209-.784c-.738-1.272-.161-1.758.029-1.918a2.932,2.932,0,0,1,3.241-.007c.2.168.776.654.04,1.925a.574.574,0,0,0,.993.575c.739-1.274,1.454-1.016,1.688-.934a2.921,2.921,0,0,1,1.623,2.787c-.077.463-.427,1-1.657,1a.574.574,0,0,0,0,1.147c.981,0,1.539.332,1.656.989a2.921,2.921,0,0,1-1.609,2.793c-.247.087-.96.352-1.7-.929a.577.577,0,0,0-.784-.208.574.574,0,0,0-.209.785c.739,1.272.161,1.757-.029,1.918a2.953,2.953,0,0,1-1.629.492A2.911,2.911,0,0,1,842.244,658.911Zm-.579,7.261a.574.574,0,0,0,.347-.525v-2.26h3.694v2.261a.575.575,0,0,0,.346.525,5.435,5.435,0,0,1,1.928,8.516l-.03.035h-8.175l-.031-.035a5.4,5.4,0,0,1-1.315-3.465h0l0-.081A5.439,5.439,0,0,1,841.665,666.172Zm25.731,10.8a1.307,1.307,0,0,1-1.3,1.3H836.645a1.307,1.307,0,0,1-1.3-1.3v-1.095H867.4Z" transform="translate(0 0)"/><path class="c" d="M846.4,652.9a2.655,2.655,0,0,0-2.643-2.659h-.008A2.651,2.651,0,1,0,846.4,652.9Zm-1.583,1.053a1.487,1.487,0,0,1-1.062.445h0a1.5,1.5,0,1,1-.011-3.007h.006a1.506,1.506,0,0,1,1.5,1.5A1.49,1.49,0,0,1,844.814,653.957Z" transform="translate(0.113 0.079)"/><path class="c" d="M861.151,670.873h-5.216a.574.574,0,0,0,0,1.147h5.216a.574.574,0,0,0,0-1.147Z" transform="translate(0.346 0.416)"/></g></g></g></svg>