<svg xmlns="http://www.w3.org/2000/svg" width="40" height="40" viewBox="0 0 40 40"><defs><style>.a{fill:#ffe03d;opacity:0.1;}.b,.c{fill:#6e6e6e;}.b{opacity:0;}</style></defs><g transform="translate(-19 -305)"><circle class="a" cx="16.5" cy="16.5" r="16.5" transform="translate(23 305)"/><g transform="translate(1)"><rect class="b" width="40" height="40" transform="translate(18 305)"/><path class="c" d="M984.825,613.805a.739.739,0,0,0,.893-.131l6.714-6.313c1.622-1.521,3.237-3.034,4.851-4.557l4.6-4.335c.23-.217.463-.43.7-.644.513-.471,1.028-.945,1.516-1.443l.093-.068a.91.91,0,0,0,.091-.849.737.737,0,0,0-.679-.5h-6.262l2.055-4.111c.683-1.362,1.37-2.724,2.045-4.095l2.229-4.449c.191-.376.382-.752.565-1.13a.888.888,0,0,0,.09-.672.814.814,0,0,0-.383-.5.757.757,0,0,0-.353-.106H991.42l-.565,0c-.371,0-.743-.005-1.117,0a.83.83,0,0,0-.235.048,1.026,1.026,0,0,0-.219.113.685.685,0,0,0-.126.127.971.971,0,0,0-.1.152l-.014.026a.962.962,0,0,1-.057.126c-.1.332-.2.648-.293.963l-3.949,12.915c-.117.369-.235.737-.339,1.109l-.03.1a.819.819,0,0,0,.556.977.877.877,0,0,0,.2.039h4.436l-.229.7-2.861,9.144q-.333,1.078-.672,2.157t-.672,2.155l-.186.568c-.163.491-.325.979-.458,1.473l-.032.109A.9.9,0,0,0,984.825,613.805Zm4.539-11.546c.436-1.386.872-2.77,1.3-4.145.089-.285.18-.57.271-.853.128-.4.256-.8.375-1.2l.013-.074a.826.826,0,0,0-.066-.611.817.817,0,0,0-.488-.4,1.745,1.745,0,0,0-.2-.028l-4.423,0,.148-.5c.357-1.188.713-2.377,1.089-3.564l2.6-8.517c.06-.187.12-.376.177-.565l.081-.27h12.1l-1.919,3.841q-1.081,2.178-2.182,4.356c-.622,1.257-1.244,2.5-1.876,3.762-.306.6-.611,1.2-.907,1.815a.866.866,0,0,0,.286,1.171.792.792,0,0,0,.353.105h5.5l-4.775,4.5q-2.651,2.483-5.3,4.978c-1.272,1.191-2.5,2.343-3.723,3.5l-1.036.976Z" transform="translate(-956.353 -271.9)"/></g></g></svg>