<svg xmlns="http://www.w3.org/2000/svg" width="40" height="40" viewBox="0 0 40 40"><defs><style>.a{fill:#ffe03d;opacity:0.1;}.b,.c{fill:#6e6e6e;}.b{opacity:0;}</style></defs><g transform="translate(-19 -305)"><circle class="a" cx="16.5" cy="16.5" r="16.5" transform="translate(23 305)"/><g transform="translate(1)"><rect class="b" width="40" height="40" transform="translate(18 305)"/><g transform="translate(21 308)"><path class="c" d="M75.767,31.909V31.3a6.233,6.233,0,1,0-12.467,0v2.267H61.033a.567.567,0,0,0-.567.567V36.4a.567.567,0,0,0,.567.567h.057l.537,5.1H59.333V17.7a1.7,1.7,0,1,0-3.4,0V42.067H50.267A1.135,1.135,0,0,0,49.133,43.2v1.63L48.017,49.3a.567.567,0,0,0,.55.7H75.2a.567.567,0,0,0,.567-.567V47.2l.8-7.6a1.734,1.734,0,0,0,.9-1.53V33.992a2.129,2.129,0,0,0-1.7-2.082ZM64.433,31.3a5.1,5.1,0,1,1,10.2,0v.567H69.392a2.129,2.129,0,0,0-2.082,1.7H64.433ZM61.6,34.7h5.667v1.133H61.6Zm.629,2.267h5.037v1.1a1.756,1.756,0,0,0,.522,1.242,1.672,1.672,0,0,0,1.2.489,1.707,1.707,0,0,0,1.107-.434,1.7,1.7,0,0,0,2.267,0,1.7,1.7,0,0,0,2.266,0,1.683,1.683,0,0,0,.777.395L74.69,46.6H66.576l-.442-1.77V43.2A1.135,1.135,0,0,0,65,42.067H62.766ZM57.067,17.7a.567.567,0,1,1,1.133,0V42.067H57.067Zm-6.8,25.5H65v1.133H50.267Zm1.292,5.667.85-3.4h1.1l-.85,3.4Zm-1.417-3.4h1.1l-.85,3.4h-1.1Zm4.533,0h1.182l-.425,3.4H53.826Zm1.9,3.4.425-3.4h1.266l.425,3.4Zm3.258,0-.425-3.4h1.182l.85,3.4Zm2.776,0-.85-3.4h1.1l.85,3.4Zm2.267,0-.85-3.4h1.1l.85,3.4Zm9.757,0H67.142l-.283-1.133h7.774Zm1.7-12.467v1.668a.59.59,0,0,1-.538.6.567.567,0,0,1-.6-.566V35.833H74.067V38.1a.567.567,0,1,1-1.133,0V35.833H71.8V38.1a.567.567,0,1,1-1.133,0V35.833H69.533V38.1a.566.566,0,0,1-.558.567h-.008a.545.545,0,0,1-.383-.163.615.615,0,0,1-.184-.435V33.992A.993.993,0,0,1,69.392,33h5.95a.993.993,0,0,1,.992.992Z" transform="translate(-45.733 -16)"/><rect class="c" width="1.133" height="2.833" transform="translate(26.633 26.633)"/><rect class="c" width="1.133" height="1.133" transform="translate(26.633 24.367)"/><path class="c" d="M66.294,205.28a.567.567,0,0,0,1.075,0,3.032,3.032,0,0,1,1.908-1.908.567.567,0,0,0,0-1.075,3.032,3.032,0,0,1-1.908-1.908.567.567,0,0,0-1.075,0,3.032,3.032,0,0,1-1.908,1.908.567.567,0,0,0,0,1.075,3.032,3.032,0,0,1,1.908,1.908Zm.538-3.468a4.194,4.194,0,0,0,1.022,1.022,4.193,4.193,0,0,0-1.022,1.022,4.193,4.193,0,0,0-1.022-1.022A4.194,4.194,0,0,0,66.832,201.812Z" transform="translate(-60.598 -186.968)"/><path class="c" d="M421.278,106.3a3.032,3.032,0,0,1-1.908-1.908.567.567,0,0,0-1.075,0,3.032,3.032,0,0,1-1.908,1.908.567.567,0,0,0,0,1.075,3.032,3.032,0,0,1,1.908,1.908.567.567,0,0,0,1.075,0,3.031,3.031,0,0,1,1.908-1.908.567.567,0,0,0,0-1.075Zm-2.446,1.56a4.194,4.194,0,0,0-1.022-1.022,4.194,4.194,0,0,0,1.022-1.022,4.194,4.194,0,0,0,1.022,1.022A4.194,4.194,0,0,0,418.832,107.857Z" transform="translate(-387.665 -97.768)"/><path class="c" d="M18.832,301.668a.567.567,0,0,0,.538-.387,3.032,3.032,0,0,1,1.908-1.908.567.567,0,0,0,0-1.075,3.031,3.031,0,0,1-1.908-1.908.567.567,0,0,0-1.075,0,3.031,3.031,0,0,1-1.908,1.908.567.567,0,0,0,0,1.075,3.032,3.032,0,0,1,1.908,1.908A.567.567,0,0,0,18.832,301.668Zm0-3.856a4.194,4.194,0,0,0,1.022,1.022,4.193,4.193,0,0,0-1.022,1.022,4.193,4.193,0,0,0-1.022-1.022A4.194,4.194,0,0,0,18.832,297.812Z" transform="translate(-15.998 -276.168)"/></g></g></g></svg>