<svg xmlns="http://www.w3.org/2000/svg" width="40" height="40" viewBox="0 0 40 40"><defs><style>.a{fill:#ffe03d;opacity:0.1;}.b,.c{fill:#6e6e6e;}.b{opacity:0;}</style></defs><g transform="translate(-19 -305)"><circle class="a" cx="16.5" cy="16.5" r="16.5" transform="translate(23 305)"/><g transform="translate(1)"><rect class="b" width="40" height="40" transform="translate(18 305)"/><path class="c" d="M968.208,604.428a.781.781,0,0,0,.147.594.761.761,0,0,0,1.358-.358.784.784,0,0,0,0-.2l0-12.112a2.741,2.741,0,0,0-.708-1.843l-.152-.169.151-.169a2.763,2.763,0,0,0-.1-3.8l-7.685-7.656.3-.161a3.851,3.851,0,1,0-5.225-1.566,3.774,3.774,0,0,0,.511.729l.23.261-.32.139a7.481,7.481,0,0,0-4.4,5.514l-.05.271-5.846-1.589-2-3.476.268-.11a3.838,3.838,0,0,0,2.106-5.015,3.857,3.857,0,0,0-7.142,2.918,3.8,3.8,0,0,0,.684,1.093l.232.261-.322.14a7.474,7.474,0,0,0-4.522,6.848v9.4a.761.761,0,0,0,.761.758h1.11l-1.779,6.576a2.77,2.77,0,0,0,1.93,3.382l.086.028a3.823,3.823,0,0,0,.675.074,2.787,2.787,0,0,0,2.681-2.052l.719-2.681.723,2.682A2.777,2.777,0,0,0,948,601.7l-2-7.469v-6.3l5.462,1.484a2.825,2.825,0,0,0,.5.087l.231.02v4.84a.761.761,0,0,0,.761.758h1.268v9.3a.761.761,0,0,0,.761.758H959.7a.762.762,0,0,0,.75-.655l1.341-10.024,1.35-6.059,1.892,1.885-.159.179a2.746,2.746,0,0,0-.705,1.839v.671a.767.767,0,0,0,.689.846.752.752,0,0,0,.826-.688.771.771,0,0,0,0-.137v-.691a1.234,1.234,0,0,1,.29-.9,1.258,1.258,0,0,1,.86-.448,1.1,1.1,0,0,1,.115-.005,1.268,1.268,0,0,1,1.262,1.15,1.378,1.378,0,0,1,0,.223Zm-8.522-31.591a2.334,2.334,0,1,1-2.343,2.334A2.34,2.34,0,0,1,959.686,572.837Zm-18.124.683a2.329,2.329,0,0,1,1.656-.684h0a2.339,2.339,0,1,1-1.658.684Zm-1.843,29.244a1.264,1.264,0,0,1-.657.712,1.28,1.28,0,0,1-.533.117,1.268,1.268,0,0,1-1.25-1.481l1.881-6.994h1.316l.651,2.42Zm6.817-.672a1.261,1.261,0,0,1-.128.956h0a1.269,1.269,0,0,1-2.314-.3l-2.053-7.626h2.62Zm6.756-14.929a1.266,1.266,0,0,1-1.413.8l-7.995-2.17a1.959,1.959,0,0,1-1.21-.973l-.8-1.544a.761.761,0,0,0-1.334.714l.793,1.519a3.469,3.469,0,0,0,2.156,1.734l1,.271v6.088h-7.245v-8.641a5.96,5.96,0,0,1,5.384-5.925l.164-.016,2.471,4.305a.743.743,0,0,0,.455.354l6.809,1.849A1.268,1.268,0,0,1,953.291,587.163Zm5.736,16.515h-3.3v-8.559h4.443Zm8.939-14.476a1.279,1.279,0,0,1-1.788.153,1.518,1.518,0,0,1-.151-.151l-7.154-7.125a.76.76,0,0,0-1.056,1.082l4.04,4.023-1.428,6.427h-6.724v-4.543l.106-.076a2.76,2.76,0,0,0,.632-3.862,2.705,2.705,0,0,0-.6-.6l-.118-.087.017-.147a6.007,6.007,0,0,1,5.517-5.265l.117-.008,8.449,8.417A1.257,1.257,0,0,1,967.967,589.2Z" transform="translate(-914.721 -263.321)"/></g></g></svg>