<svg xmlns="http://www.w3.org/2000/svg" width="40" height="40" viewBox="0 0 40 40"><defs><style>.a{fill:#ffe03d;opacity:0.1;}.b,.c{fill:#6e6e6e;}.b{opacity:0;}</style></defs><g transform="translate(-19 -305)"><circle class="a" cx="16.5" cy="16.5" r="16.5" transform="translate(23 305)"/><g transform="translate(1)"><rect class="b" width="40" height="40" transform="translate(18 305)"/><path class="c" d="M963.954,635.476a.654.654,0,0,0-.066-.5.624.624,0,0,0-.162-.188h0l-1.791-1.408V633.2a10.735,10.735,0,0,0-1.851-6.012l-.115-.17.09-.185c.354-.735.692-1.493,1-2.255a.659.659,0,0,0-.081-.643,12.636,12.636,0,0,0-14.161-4.478l-.36.119-.1-.365a8.071,8.071,0,0,0-5.819-5.708,8.868,8.868,0,0,0-2.3-.308,8.329,8.329,0,0,0-5.92,2.45,7.761,7.761,0,0,0-1.493,9.078,16.177,16.177,0,0,1,1.712,7.516.664.664,0,0,0,.664.658h.866v3.419a.665.665,0,0,0,.663.663h.868v3.42a.665.665,0,0,0,.663.663H940.2a40.637,40.637,0,0,1,5.909,1.961l.219.093v3.413a.665.665,0,0,0,.664.664h8.166a.665.665,0,0,0,.664-.664l.357-1.636v-1.635h0l-.162-.317a10.87,10.87,0,0,0,5.109-5.542l.047-.112,2.477-1.413A.661.661,0,0,0,963.954,635.476Zm-30.1-3.9-.013-.343a17.258,17.258,0,0,0-1.84-7.107,6.406,6.406,0,0,1,.271-6.307,7,7,0,0,1,6.017-3.3h.036a6.735,6.735,0,0,1,6.336,9.487,18.282,18.282,0,0,0-1.9,7.23l-.018.338h-3.78v-5.183l1.9-2.424a.664.664,0,0,0-1.057-.791l-1.508,1.918-1.523-1.94a.664.664,0,0,0-1.021.838l1.88,2.4v5.187Zm5.824,8.168h-2.754l-.012-2.764h2.766Zm-4.287-4.083V632.9h5.818v2.764Zm7.8,4.941c-.653-.208-1.276-.4-1.758-.555l-.431-.135v-2.931h.868a.664.664,0,0,0,.664-.663V632.9h.868a.664.664,0,0,0,.664-.663,16.91,16.91,0,0,1,1.773-7.647,7.837,7.837,0,0,0,.779-3.408v-.249l.234-.087a11.378,11.378,0,0,1,12.705,3.415l.484.584h-.52a27.4,27.4,0,0,1-6.089,9.142l-.3.3-.244-.348a3.725,3.725,0,0,0-6.248,4.049l.172.289-3.453,2.381Zm17.211-4.406a1.013,1.013,0,0,0-.437.508,9.529,9.529,0,0,1-4.56,5.06,1.662,1.662,0,0,0-.919,1.491v2.616h-6.849v-2.518a1.7,1.7,0,0,0-.969-1.519c-.218-.1-.583-.247-1.082-.427l-.656-.235,3.289-2.267a.663.663,0,0,0,.165-.923.7.7,0,0,0-.125-.134,2.4,2.4,0,1,1,3.877-2.333.665.665,0,0,0,.283.425.663.663,0,0,0,.77-.023,23.126,23.126,0,0,0,5.763-6.975l.325-.6.308.609a9.515,9.515,0,0,1,1.026,4.311c0,.774.089.843.786,1.376l.74.578Z" transform="translate(-908.981 -305.199)"/></g></g></svg>