<svg xmlns="http://www.w3.org/2000/svg" width="40" height="40" viewBox="0 0 40 40"><defs><style>.a{fill:#ffe03d;opacity:0.1;}.b,.c{fill:#6e6e6e;}.b{opacity:0;}</style></defs><g transform="translate(-19 -305)"><circle class="a" cx="16.5" cy="16.5" r="16.5" transform="translate(23 305)"/><g transform="translate(1)"><rect class="b" width="40" height="40" transform="translate(18 305)"/><g transform="translate(-940.682 -214.194)"><path class="c" d="M995.336,535.951a25.933,25.933,0,0,0-3.427-1.961l-.1-.048-.012-.109a7.533,7.533,0,0,0-7.545-6.639H973.107a7.531,7.531,0,0,0-7.544,6.641l-.012.108-.1.048a26.121,26.121,0,0,0-3.424,1.96l-.344.235,4.384,16.009H991.3l4.383-16.009ZM966.954,533a6.4,6.4,0,0,1,6.155-4.63h11.15a6.406,6.406,0,0,1,6.17,4.63l.1.374-.373-.144a31.87,31.87,0,0,0-22.932,0l-.373.144Zm24.264,14.9h-5.853v1.172H990.9l-.537,1.955H967l-.537-1.955h16.874V547.9H966.147l-3.086-11.221.124-.078a28.714,28.714,0,0,1,15.5-4.333h.31a28.593,28.593,0,0,1,15.186,4.334l.124.078Z" transform="translate(0 0)"/><path class="c" d="M981.17,534.786h-4.857v3.519h-3.649v4.687h3.649v3.519h4.857v-3.519h3.648v-4.687H981.17Zm2.43,4.686v2.346h-3.648v3.52h-2.432v-3.52h-3.64v-2.346h3.648v-3.514h2.432v3.519Z" transform="translate(0.148 -0.17)"/></g></g></g></svg>